<svg width="766" height="205" viewBox="0 0 766 205" fill="none" xmlns="http://www.w3.org/2000/svg">
<g clip-path="url(#clip0_12_204)">
<mask id="mask0_12_204" style="mask-type:luminance" maskUnits="userSpaceOnUse" x="0" y="0" width="766" height="205">
<path d="M766 0H0V205H766V0Z" fill="white"/>
</mask>
<g mask="url(#mask0_12_204)">
<path d="M78.9698 4.36844C75.5018 5.33178 70.685 7.87502 68.6042 9.91732C65.4829 12.9615 63.9416 16.7763 63.1324 23.4427C62.5929 28.1438 61.2442 32.267 58.8166 36.4671C55.6568 41.9775 52.998 45.2143 45.06 53.1138C37.1991 60.9747 34.81 62.7858 28.9914 65.2134C26.294 66.3309 18.934 68.5273 17.8551 68.5273C16.5835 68.5273 12.0365 70.2999 10.0712 71.5715C2.17181 76.6194 -2.33665 88.3337 1.24699 94.4606C3.40489 98.0828 7.06561 99.7398 13.0384 99.7398C18.9726 99.7398 22.1709 98.3525 26.7949 93.767C30.6098 89.9907 31.4961 88.2567 33.3072 81.0508C35.6963 71.4944 37.4688 68.7971 50.1079 55.2717C59.3561 45.407 62.9397 42.2858 67.9876 39.7811C72.8044 37.4305 75.5788 36.7754 80.7038 36.7754C85.7132 36.814 89.4125 37.8544 93.0732 40.2049C95.6164 41.8619 108.718 54.8863 112.147 59.2021C116.194 64.2886 118.005 69.1824 119.161 78.4691C119.585 81.8215 119.97 83.3629 120.933 85.2896C126.058 95.6937 139.584 100.125 150.026 94.846C152.916 93.3817 155.883 90.376 157.271 87.4475C158.273 85.3666 158.504 84.3262 158.658 81.4362C158.966 75.5405 157.348 71.4944 152.916 66.7933C147.984 61.6298 144.169 59.8187 137.002 59.2407C128.948 58.6241 125.095 57.6608 119.816 55.0405C116.348 53.2679 113.265 50.6476 107.408 44.4437C102.321 39.0489 101.088 37.5076 99.4698 34.6175C97.2349 30.5715 96.9651 29.2613 96.6954 20.8609C96.4642 13.5395 96.3871 13 95.4238 11.0348C94.1522 8.45303 91.6089 5.83272 89.3739 4.83085C87.1004 3.79043 81.9369 3.55923 78.9698 4.36844Z" fill="url(#paint0_linear_12_204)"/>
<path d="M116.102 0.970762C113.521 2.24239 110.9 5.20949 109.86 7.98393C109.166 9.79503 109.051 10.7968 109.166 13.6869C109.359 18.4265 110.708 21.2395 114.985 25.6709C119.108 29.9867 120.727 30.8344 128.279 32.684C135.331 34.3795 139.878 36.3833 144.194 39.5816C146.66 41.4312 159.453 54.764 164.116 60.3514C171.206 68.8288 173.865 79.4256 171.129 88.404C170.011 91.9877 168.817 93.9914 165.696 97.4595C161.842 101.737 152.17 110.561 149.82 111.948C145.003 114.761 138.876 116.456 131.824 116.919C129.589 117.034 126.931 117.42 125.852 117.767C119.763 119.655 114.446 124.895 112.133 131.176C110.9 134.529 110.862 140.617 112.095 144.085C113.174 147.245 117.181 152.447 119.802 154.104C127.239 158.805 136.294 157.264 143.616 150.058C146.159 147.553 147.045 146.359 148.355 143.661C149.743 140.771 150.051 139.654 150.706 134.914C152.633 121.042 155.561 115.801 167.468 105.05C175.136 98.1531 178.335 96.8044 188.469 96.2264C197.101 95.764 198.681 95.4557 201.224 93.6832C205.347 90.7546 206.657 86.2847 205.077 80.0807C203.459 73.607 200.415 69.3298 195.521 66.748C194.134 65.9773 190.743 64.8598 187.159 63.935C178.566 61.7386 174.597 60.1202 169.973 56.9989C164.848 53.5309 155.214 43.7818 149.897 36.7301C146.93 32.7997 143.307 25.4397 141.997 20.7771C141.458 18.7733 140.417 15.8833 139.685 14.3419C134.753 3.97641 123.193 -2.57434 116.102 0.970762Z" fill="url(#paint1_linear_12_204)"/>
<path d="M42.5558 13.7544C40.2823 14.9489 36.2748 18.5326 29.0305 25.8926C21.4778 33.5223 18.241 37.6839 17.8171 40.2272C17.6244 41.3446 17.7786 41.6529 18.7034 42.2309C20.2062 43.2328 22.4797 43.0401 25.8321 41.6529C35.1959 37.761 43.5577 29.0909 46.6019 20.1895C47.6038 17.338 47.6038 14.6021 46.679 13.7544C45.7927 12.9452 44.0587 12.9452 42.5558 13.7544Z" fill="#C115EC"/>
<path d="M167.52 13.9116C166.557 14.4511 166.596 17.5338 167.559 20.1541C168.484 22.6588 170.025 26.3195 170.295 26.5892C170.41 26.7049 170.834 27.437 171.22 28.2462C172.414 30.5968 180.082 37.687 183.473 39.6137C193.3 45.1626 199.542 43.891 195.072 37.2631C191.373 31.8299 179.081 19.499 173.223 15.3759C170.526 13.4492 168.946 13.0639 167.52 13.9116Z" fill="#15C1EC"/>
<path d="M78.6748 47.7363C72.625 49.8942 67.8468 54.3256 64.9568 60.414C64.032 62.3792 63.7237 63.805 63.2613 68.1208C62.953 71.0493 62.5292 74.3632 62.3365 75.4807C61.797 78.4478 59.6006 83.5728 57.5968 86.617C55.7472 89.43 45.1119 100.104 41.5282 102.84C37.0583 106.193 32.5498 107.541 24.3806 107.927C19.0244 108.196 18.4079 108.273 15.9032 109.429C9.31393 112.435 7.15603 117.29 9.12126 124.92C10.3158 129.583 11.3562 131.895 13.3214 134.322C16.5583 138.368 19.1015 139.563 26.1917 140.488C37.9831 141.99 42.8384 144.572 52.9342 154.707C64.7641 166.575 68.078 171.7 71.2378 182.798C72.1241 185.803 73.3186 189.349 73.9737 190.62C76.016 194.82 81.2566 200.369 85.6109 202.913C88 204.3 91.7764 205.147 94.5893 204.916C98.7125 204.608 101.642 202.257 103.761 197.595C106.42 191.815 104.801 184.185 99.7143 178.675C96.0151 174.706 91.8534 172.548 85.3027 171.315C78.3666 170.043 72.4324 167.037 67.2688 162.182C62.953 158.175 49.1194 142.761 47.0771 139.678C42.8384 133.32 41.3355 128.349 41.6438 121.645C41.875 116.443 42.7613 113.668 45.4587 109.622C47.501 106.539 57.3656 96.1349 61.8741 92.2815C66.922 87.9657 72.548 85.7693 81.4493 84.6518C89.2717 83.6499 92.547 82.2627 96.8628 78.1781C100.986 74.2862 102.798 70.086 102.798 64.4215C102.798 58.3331 100.524 53.4779 96.1692 50.2796C92.7782 47.8134 90.235 46.9271 85.6495 46.773C82.1814 46.6574 81.4878 46.7344 78.6748 47.7363Z" fill="url(#paint2_linear_12_204)"/>
<path d="M194.495 104.449C189.293 106.145 184.515 110.576 182.203 115.932C181.779 116.934 181.008 119.631 180.507 121.905C179.043 128.417 176.731 133.542 173.417 137.627C168.909 143.214 155.075 157.857 151.877 160.4C148.524 163.098 143.052 165.872 139.276 166.758C137.735 167.105 134.999 167.375 132.918 167.375C128.448 167.336 124.171 166.142 120.741 163.907C117.389 161.71 104.095 147.8 100.858 143.099C99.0853 140.517 96.3879 134.583 95.7714 131.847C95.4631 130.459 94.9236 127.146 94.6154 124.487C93.8062 117.936 92.8043 115.239 89.8757 111.732C84.9819 105.798 76.8127 102.908 69.7225 104.526C64.3663 105.759 58.933 109.959 56.5824 114.699C54.887 118.129 54.5787 123.138 55.7732 127.068C57.3531 132.232 61.2065 137.126 66.2544 140.478C69.6069 142.675 71.8033 143.33 77.699 143.831C84.9048 144.409 87.4481 145.064 92.4575 147.491C96.7347 149.572 97.043 149.842 101.898 154.736C107.601 160.554 111.879 165.448 113.574 168.261C114.229 169.302 115.231 171.575 115.809 173.271C116.772 176.084 116.888 177.008 117.081 184.06C117.312 191.459 117.35 191.844 118.391 193.925C119.739 196.738 121.782 198.78 124.364 199.975C126.175 200.784 126.868 200.899 129.411 200.745C133.188 200.514 139.122 198.549 142.166 196.506C146.135 193.886 147.253 191.69 150.066 181.324C153.187 169.88 154.921 166.334 161.086 158.974C168.331 150.304 175.806 143.484 181.085 140.748C186.133 138.089 189.1 137.203 195.381 136.317C201.662 135.43 203.435 134.621 207.096 130.922C208.945 129.072 210.679 126.876 211.411 125.489C212.991 122.483 214.224 117.974 214.224 115.239C214.224 110.537 210.564 106.067 205.323 104.449C202.279 103.486 197.501 103.486 194.495 104.449Z" fill="url(#paint3_linear_12_204)"/>
<path d="M188.599 162.535C180.199 165.887 173.147 172.13 169.717 179.374C167.482 184.037 166.75 186.387 166.904 188.661C167.02 190.241 167.174 190.626 168.022 191.011C170.488 192.206 174.149 189.586 184.476 179.22C193.763 169.933 196.498 166.388 196.498 163.806C196.498 161.302 193.146 160.762 188.599 162.535Z" fill="#4040EC"/>
<path d="M18.3173 162.458C16.6603 164.115 18.6256 168.007 24.5598 174.712C28.6444 179.374 37.3915 187.467 40.8211 189.779C44.0194 191.975 45.4451 192.283 46.5626 191.089C47.7957 189.74 47.6415 187.004 46.1002 183.189C42.5551 174.519 34.7327 166.658 25.9855 163.113C22.4789 161.687 19.3192 161.418 18.3173 162.458Z" fill="#2CA9EC"/>
</g>
<path d="M672.328 169.312V41.3125H698.953V89.4375H699.766C700.932 86.8542 702.62 84.2292 704.828 81.5625C707.078 78.8542 709.995 76.6042 713.578 74.8125C717.203 72.9792 721.703 72.0625 727.078 72.0625C734.078 72.0625 740.536 73.8958 746.453 77.5625C752.37 81.1875 757.099 86.6667 760.641 94C764.182 101.292 765.953 110.438 765.953 121.438C765.953 132.146 764.224 141.188 760.766 148.562C757.349 155.896 752.682 161.458 746.766 165.25C740.891 169 734.307 170.875 727.016 170.875C721.849 170.875 717.453 170.021 713.828 168.312C710.245 166.604 707.307 164.458 705.016 161.875C702.724 159.25 700.974 156.604 699.766 153.938H698.578V169.312H672.328ZM698.391 121.312C698.391 127.021 699.182 132 700.766 136.25C702.349 140.5 704.641 143.812 707.641 146.188C710.641 148.521 714.286 149.688 718.578 149.688C722.911 149.688 726.578 148.5 729.578 146.125C732.578 143.708 734.849 140.375 736.391 136.125C737.974 131.833 738.766 126.896 738.766 121.312C738.766 115.771 737.995 110.896 736.453 106.688C734.911 102.479 732.641 99.1875 729.641 96.8125C726.641 94.4375 722.953 93.25 718.578 93.25C714.245 93.25 710.578 94.3958 707.578 96.6875C704.62 98.9792 702.349 102.229 700.766 106.438C699.182 110.646 698.391 115.604 698.391 121.312Z" fill="black"/>
<path d="M623.906 128.438V73.3125H650.531V169.312H624.969V151.875H623.969C621.802 157.5 618.198 162.021 613.156 165.438C608.156 168.854 602.052 170.562 594.844 170.562C588.427 170.562 582.781 169.104 577.906 166.188C573.031 163.271 569.219 159.125 566.469 153.75C563.76 148.375 562.385 141.938 562.344 134.438V73.3125H588.969V129.688C589.01 135.354 590.531 139.833 593.531 143.125C596.531 146.417 600.552 148.062 605.594 148.062C608.802 148.062 611.802 147.333 614.594 145.875C617.385 144.375 619.635 142.167 621.344 139.25C623.094 136.333 623.948 132.729 623.906 128.438Z" fill="black"/>
<path d="M479.141 113.812V169.312H452.516V41.3125H478.391V90.25H479.516C481.682 84.5833 485.182 80.1458 490.016 76.9375C494.849 73.6875 500.911 72.0625 508.203 72.0625C514.87 72.0625 520.682 73.5208 525.641 76.4375C530.641 79.3125 534.516 83.4583 537.266 88.875C540.057 94.25 541.432 100.688 541.391 108.188V169.312H514.766V112.938C514.807 107.021 513.307 102.417 510.266 99.125C507.266 95.8333 503.057 94.1875 497.641 94.1875C494.016 94.1875 490.807 94.9583 488.016 96.5C485.266 98.0417 483.099 100.292 481.516 103.25C479.974 106.167 479.182 109.688 479.141 113.812Z" fill="black"/>
<path d="M330.578 63.625V41.3125H435.703V63.625H396.516V169.312H369.766V63.625H330.578Z" fill="black"/>
<path d="M287 169.312V73.3125H313.625V169.312H287ZM300.375 60.9375C296.417 60.9375 293.021 59.625 290.188 57C287.396 54.3333 286 51.1458 286 47.4375C286 43.7708 287.396 40.625 290.188 38C293.021 35.3333 296.417 34 300.375 34C304.333 34 307.708 35.3333 310.5 38C313.333 40.625 314.75 43.7708 314.75 47.4375C314.75 51.1458 313.333 54.3333 310.5 57C307.708 59.625 304.333 60.9375 300.375 60.9375Z" fill="black"/>
</g>
<defs>
<linearGradient id="paint0_linear_12_204" x1="7.30438e-07" y1="51.8108" x2="158.694" y2="51.8108" gradientUnits="userSpaceOnUse">
<stop stop-color="#15C1EC"/>
<stop offset="1" stop-color="#C115EC"/>
</linearGradient>
<linearGradient id="paint1_linear_12_204" x1="157.427" y1="156.791" x2="157.427" y2="1.8691e-05" gradientUnits="userSpaceOnUse">
<stop stop-color="#15C1EC"/>
<stop offset="1" stop-color="#C115EC"/>
</linearGradient>
<linearGradient id="paint2_linear_12_204" x1="8.42285" y1="125.843" x2="105.026" y2="125.843" gradientUnits="userSpaceOnUse">
<stop stop-color="#9615EC"/>
<stop offset="1" stop-color="#15C1EC"/>
</linearGradient>
<linearGradient id="paint3_linear_12_204" x1="55.0537" y1="152.265" x2="214.224" y2="152.265" gradientUnits="userSpaceOnUse">
<stop stop-color="#15C1EC"/>
<stop offset="1" stop-color="#C115EC"/>
</linearGradient>
<clipPath id="clip0_12_204">
<rect width="766" height="205" fill="white"/>
</clipPath>
</defs>
</svg>
