<svg width="275" height="84" viewBox="0 0 275 84" fill="none" xmlns="http://www.w3.org/2000/svg">
<g clip-path="url(#clip0_12_154)">
<mask id="mask0_12_154" style="mask-type:luminance" maskUnits="userSpaceOnUse" x="0" y="0" width="275" height="84">
<path d="M275 0H0V84H275V0Z" fill="white"/>
</mask>
<g mask="url(#mask0_12_154)">
<path d="M30.9652 0.191223C29.6053 0.569801 27.7166 1.56923 26.9007 2.37182C25.6768 3.56811 25.0724 5.06727 24.7551 7.68701C24.5436 9.53446 24.0147 11.1547 23.0628 12.8053C21.8238 14.9707 20.7812 16.2428 17.6687 19.3471C14.5863 22.4362 13.6495 23.148 11.3679 24.102C10.3102 24.5411 7.4243 25.4043 7.00123 25.4043C6.50261 25.4043 4.71967 26.1009 3.94908 26.6006C0.851596 28.5843 -0.916235 33.1878 0.488964 35.5955C1.33511 37.019 2.77052 37.6701 5.11252 37.6701C7.43941 37.6701 8.69351 37.125 10.5067 35.323C12.0025 33.8389 12.3501 33.1575 13.0602 30.3258C13.997 26.5703 14.6921 25.5103 19.648 20.1951C23.2743 16.3185 24.6795 15.0919 26.6589 14.1076C28.5476 13.1839 29.6355 12.9264 31.6451 12.9264C33.6094 12.9416 35.0599 13.3504 36.4953 14.2742C37.4925 14.9253 42.6298 20.0437 43.9746 21.7397C45.5611 23.7385 46.2713 25.6617 46.7245 29.3112C46.8908 30.6286 47.0419 31.2343 47.4196 31.9915C49.4292 36.0801 54.7327 37.8216 58.8274 35.747C59.9606 35.1715 61.1241 33.9904 61.668 32.8395C62.0609 32.0218 62.1515 31.6129 62.212 30.4772C62.3328 28.1603 61.6982 26.5703 59.9606 24.7228C58.0266 22.6937 56.5307 21.982 53.7203 21.7548C50.5624 21.5125 49.0514 21.134 46.9814 20.1042C45.6215 19.4076 44.4128 18.3779 42.1161 15.9399C40.1216 13.8199 39.6381 13.2142 39.0035 12.0784C38.1271 10.4884 38.0214 9.97361 37.9156 6.67243C37.825 3.79526 37.7947 3.58326 37.417 2.81096C36.9184 1.79638 35.9211 0.766659 35.0448 0.37294C34.1533 -0.0359188 32.1286 -0.126778 30.9652 0.191223Z" fill="white"/>
<path d="M48.8249 0.509421C47.8125 1.00914 46.7851 2.17515 46.3771 3.26545C46.1052 3.97717 46.0598 4.37089 46.1052 5.50661C46.1807 7.3692 46.7095 8.47465 48.3867 10.2161C50.0035 11.9121 50.6381 12.2452 53.5996 12.9721C56.3646 13.6384 58.1476 14.4258 59.8398 15.6827C60.8069 16.4096 65.8233 21.6491 67.6515 23.8448C70.4317 27.1763 71.4743 31.3406 70.4015 34.8689C69.9633 36.2772 69.4949 37.0646 68.271 38.4275C66.7601 40.1084 62.9675 43.5761 62.0459 44.1213C60.1571 45.2267 57.7547 45.893 54.9896 46.0747C54.1133 46.1202 53.0707 46.2716 52.6476 46.4079C50.2603 47.1499 48.1752 49.2093 47.2686 51.6777C46.7851 52.9951 46.77 55.3877 47.2535 56.7506C47.6766 57.9923 49.248 60.0366 50.2754 60.6877C53.1916 62.5352 56.7424 61.9295 59.6132 59.0977C60.6104 58.1134 60.958 57.644 61.4717 56.584C62.0156 55.4483 62.1365 55.0091 62.3934 53.1465C63.1489 47.695 64.2972 45.6356 68.9661 41.4107C71.9729 38.7001 73.227 38.1701 77.2008 37.9429C80.5854 37.7612 81.2049 37.6401 82.2021 36.9435C83.8189 35.7926 84.3326 34.036 83.7131 31.598C83.0785 29.054 81.8848 27.3731 79.9659 26.3585C79.422 26.0557 78.0923 25.6165 76.6871 25.2531C73.3177 24.3899 71.7614 23.7539 69.9482 22.5274C67.9386 21.1645 64.1612 17.3333 62.0761 14.5621C60.9126 13.0175 59.4923 10.1252 58.9786 8.29293C58.7671 7.50549 58.3591 6.36977 58.072 5.76404C56.138 1.69057 51.6051 -0.883736 48.8249 0.509421Z" fill="white"/>
<path d="M16.687 7.18577C15.7955 7.65521 14.2241 9.06351 11.3835 11.9558C8.42203 14.9541 7.15281 16.5896 6.98661 17.589C6.91106 18.0282 6.9715 18.1493 7.33413 18.3765C7.92341 18.7702 8.81488 18.6945 10.1294 18.1493C13.8011 16.6199 17.0799 13.2127 18.2735 9.71466C18.6664 8.59407 18.6664 7.51892 18.3038 7.18577C17.9562 6.86777 17.2763 6.86777 16.687 7.18577Z" fill="white"/>
<path d="M65.687 7.24723C65.3093 7.45923 65.3244 8.67067 65.7021 9.7004C66.0647 10.6847 66.6691 12.1232 66.7749 12.2292C66.8202 12.2747 66.9864 12.5624 67.1375 12.8804C67.6059 13.8041 70.6127 16.5904 71.9424 17.3476C75.7954 19.5282 78.2431 19.0285 76.4904 16.4239C75.0399 14.2887 70.2199 9.44297 67.9232 7.82266C66.8656 7.06551 66.2461 6.91408 65.687 7.24723Z" fill="white"/>
<path d="M27.5497 22.1943C25.1775 23.0423 23.3039 24.7838 22.1707 27.1764C21.8081 27.9487 21.6872 28.5089 21.5059 30.205C21.385 31.3558 21.2188 32.6581 21.1432 33.0973C20.9317 34.2633 20.0704 36.2773 19.2847 37.4736C18.5595 38.5791 14.3892 42.7737 12.984 43.8488C11.2313 45.1663 9.46346 45.6963 6.26021 45.8477C4.15997 45.9537 3.91821 45.984 2.93609 46.4383C0.352332 47.6194 -0.493809 49.5275 0.276784 52.5258C0.745184 54.3581 1.15314 55.2667 1.92374 56.2207C3.19295 57.8107 4.19019 58.2801 6.97037 58.6435C11.5939 59.2341 13.4977 60.2487 17.4565 64.2313C22.0951 68.8954 23.3946 70.9094 24.6336 75.2706C24.9811 76.4517 25.4495 77.8449 25.7064 78.3446C26.5072 79.9952 28.5621 82.1758 30.2695 83.1752C31.2063 83.7204 32.687 84.0535 33.79 83.9627C35.4068 83.8415 36.5551 82.9178 37.3861 81.0855C38.4287 78.814 37.7941 75.8157 35.7996 73.6503C34.3491 72.0905 32.7172 71.2425 30.1486 70.758C27.4289 70.2582 25.102 69.0771 23.0773 67.1691C21.385 65.5942 15.9606 59.537 15.1598 58.3255C13.4977 55.8269 12.9085 53.8735 13.0293 51.2386C13.12 49.1943 13.4675 48.104 14.5252 46.514C15.326 45.3026 19.1941 41.2139 20.9619 39.6996C22.9413 38.0036 25.1473 37.1405 28.6376 36.7013C31.7049 36.3076 32.9892 35.7625 34.6815 34.1573C36.2982 32.6278 37.0084 30.9773 37.0084 28.7512C37.0084 26.3586 36.1169 24.4506 34.4095 23.1937C33.0799 22.2246 32.0826 21.8763 30.2846 21.8157C28.9247 21.7703 28.6527 21.8006 27.5497 22.1943Z" fill="white"/>
<path d="M76.2639 46.1345C74.2241 46.8008 72.3505 48.5423 71.4439 50.6471C71.2777 51.0409 70.9755 52.1009 70.7791 52.9943C70.2049 55.5535 69.2983 57.5675 67.9989 59.1727C66.231 61.3684 60.8067 67.1227 59.5526 68.1222C58.238 69.1822 56.0925 70.2725 54.6117 70.6208C54.0073 70.7571 52.9345 70.8631 52.1186 70.8631C50.3659 70.8479 48.6887 70.3785 47.344 69.5002C46.0294 68.637 40.8166 63.1704 39.5474 61.323C38.8523 60.3084 37.7947 57.9764 37.5529 56.9012C37.432 56.3561 37.2205 55.0538 37.0996 54.0089C36.7823 51.4346 36.3895 50.3746 35.2411 48.9966C33.3222 46.6645 30.1189 45.5288 27.3388 46.1648C25.2385 46.6494 23.1081 48.3 22.1864 50.1626C21.5215 51.5103 21.4007 53.4789 21.8691 55.0235C22.4886 57.0526 23.9995 58.9758 25.9789 60.2932C27.2934 61.1564 28.1547 61.4138 30.4665 61.6107C33.292 61.8378 34.2892 62.0953 36.2535 63.0493C37.9306 63.867 38.0515 63.973 39.9553 65.8962C42.1916 68.1827 43.8687 70.1059 44.5336 71.2113C44.7904 71.6202 45.1833 72.5136 45.4099 73.1799C45.7877 74.2854 45.833 74.6488 45.9085 77.42C45.9992 80.3274 46.0143 80.4789 46.4223 81.2966C46.9511 82.402 47.7519 83.2046 48.7643 83.674C49.4744 83.9921 49.7464 84.0375 50.7436 83.9769C52.2244 83.886 54.5513 83.1138 55.7449 82.3112C57.3012 81.2815 57.7394 80.4183 58.8424 76.3448C60.0663 71.8474 60.7462 70.4542 63.1638 67.5619C66.0044 64.1547 68.9357 61.4744 71.0057 60.3992C72.9851 59.3544 74.1485 59.0061 76.6114 58.6578C79.0743 58.3095 79.7693 57.9915 81.2047 56.5378C81.93 55.8109 82.6099 54.9478 82.897 54.4026C83.5165 53.2214 84 51.4497 84 50.3746C84 48.5271 82.5646 46.7705 80.5097 46.1345C79.316 45.7559 77.4424 45.7559 76.2639 46.1345Z" fill="white"/>
<path d="M73.952 65.6537C70.6581 66.9711 67.893 69.4243 66.5482 72.2712C65.6719 74.1035 65.3848 75.0272 65.4452 75.9207C65.4906 76.5415 65.551 76.693 65.8834 76.8444C66.8504 77.3138 68.2858 76.2841 72.3352 72.2106C75.9767 68.5612 77.0495 67.168 77.0495 66.1534C77.0495 65.1691 75.7349 64.9571 73.952 65.6537Z" fill="white"/>
<path d="M7.18224 65.6234C6.53253 66.2746 7.30312 67.804 9.63001 70.4389C11.2316 72.2712 14.6615 75.4513 16.0063 76.3598C17.2604 77.223 17.8194 77.3441 18.2576 76.8747C18.7411 76.3447 18.6807 75.2695 18.0763 73.7704C16.6862 70.3632 13.619 67.274 10.1891 65.8809C8.81409 65.3206 7.5751 65.2146 7.18224 65.6234Z" fill="white"/>
</g>
<path d="M243.545 63.4844V21.2256H252.335V37.1139H252.603C252.989 36.261 253.546 35.3944 254.275 34.514C255.018 33.6199 255.98 32.877 257.163 32.2855C258.36 31.6802 259.846 31.3776 261.62 31.3776C263.932 31.3776 266.064 31.9829 268.017 33.1934C269.97 34.3902 271.532 36.1991 272.701 38.6202C273.87 41.0275 274.455 44.047 274.455 47.6786C274.455 51.214 273.884 54.199 272.742 56.6339C271.614 59.055 270.074 60.8914 268.12 62.1432C266.181 63.3813 264.007 64.0003 261.6 64.0003C259.894 64.0003 258.443 63.7183 257.246 63.1543C256.063 62.5903 255.093 61.8818 254.337 61.029C253.58 60.1623 253.002 59.2888 252.603 58.4084H252.211V63.4844H243.545ZM252.149 47.6374C252.149 49.522 252.411 51.1658 252.933 52.5689C253.456 53.9721 254.213 55.0657 255.203 55.8498C256.194 56.6201 257.397 57.0053 258.814 57.0053C260.245 57.0053 261.455 56.6132 262.446 55.8291C263.436 55.0313 264.186 53.9308 264.695 52.5277C265.218 51.1108 265.479 49.4807 265.479 47.6374C265.479 45.8078 265.225 44.1983 264.716 42.809C264.207 41.4196 263.457 40.3329 262.466 39.5488C261.476 38.7647 260.259 38.3726 258.814 38.3726C257.384 38.3726 256.173 38.7509 255.183 39.5075C254.206 40.2641 253.456 41.3371 252.933 42.7264C252.411 44.1158 252.149 45.7528 252.149 47.6374Z" fill="white"/>
<path d="M227.559 49.9904V31.791H236.349V63.4851H227.91V57.7282H227.579C226.864 59.5853 225.674 61.0778 224.01 62.2058C222.359 63.3338 220.344 63.8978 217.964 63.8978C215.845 63.8978 213.982 63.4164 212.372 62.4534C210.763 61.4905 209.504 60.1218 208.596 58.3472C207.702 56.5727 207.248 54.4474 207.234 51.9713V31.791H216.024V50.4031C216.038 52.2739 216.54 53.7527 217.531 54.8394C218.521 55.9262 219.849 56.4695 221.513 56.4695C222.572 56.4695 223.563 56.2288 224.484 55.7473C225.406 55.2521 226.149 54.523 226.713 53.5601C227.291 52.5972 227.573 51.4073 227.559 49.9904Z" fill="white"/>
<path d="M179.765 45.1613V63.4844H170.975V21.2256H179.517V37.3822H179.889C180.604 35.5113 181.76 34.0463 183.355 32.9871C184.951 31.9141 186.953 31.3776 189.36 31.3776C191.561 31.3776 193.48 31.8591 195.117 32.822C196.768 33.7712 198.047 35.1399 198.955 36.9282C199.876 38.7028 200.33 40.8281 200.317 43.3042V63.4844H191.527V44.8724C191.54 42.919 191.045 41.399 190.041 40.3122C189.05 39.2255 187.661 38.6821 185.873 38.6821C184.676 38.6821 183.617 38.9366 182.695 39.4456C181.787 39.9546 181.072 40.6974 180.549 41.6741C180.04 42.637 179.779 43.7994 179.765 45.1613Z" fill="white"/>
<path d="M130.717 28.592V21.2256H165.424V28.592H152.486V63.4844H143.655V28.592H130.717Z" fill="white"/>
<path d="M116.323 64V31.8716H124.926V64H116.323ZM120.645 27.73C119.366 27.73 118.268 27.2908 117.353 26.4123C116.451 25.5198 116 24.4531 116 23.212C116 21.9849 116.451 20.932 117.353 20.0535C118.268 19.1611 119.366 18.7148 120.645 18.7148C121.924 18.7148 123.014 19.1611 123.916 20.0535C124.832 20.932 125.289 21.9849 125.289 23.212C125.289 24.4531 124.832 25.5198 123.916 26.4123C123.014 27.2908 121.924 27.73 120.645 27.73Z" fill="white"/>
</g>
<defs>
<clipPath id="clip0_12_154">
<rect width="275" height="84" fill="white"/>
</clipPath>
</defs>
</svg>
