<svg width="179" height="52" viewBox="0 0 179 52" fill="none" xmlns="http://www.w3.org/2000/svg">
<path d="M19.1699 0.714283C18.3457 0.943239 17.2009 1.54768 16.7064 2.03307C15.9645 2.75657 15.5982 3.66324 15.4059 5.24762C15.2777 6.36493 14.9571 7.34486 14.3802 8.34311C13.6292 9.65274 12.9973 10.422 11.1107 12.2995C9.24239 14.1678 8.67458 14.5982 7.29168 15.1752C6.6506 15.4408 4.90138 15.9628 4.64494 15.9628C4.34272 15.9628 3.26205 16.3841 2.79498 16.6863C0.917535 17.886 -0.15398 20.6701 0.697737 22.1263C1.2106 22.9872 2.08063 23.381 3.50016 23.381C4.91053 23.381 5.67067 23.0513 6.76966 21.9614C7.67633 21.0639 7.88697 20.6518 8.3174 18.9392C8.88522 16.668 9.3065 16.0269 12.3104 12.8123C14.5084 10.4678 15.3601 9.726 16.5598 9.13072C17.7046 8.57206 18.364 8.41637 19.5821 8.41637C20.7726 8.42553 21.6518 8.67281 22.5219 9.23146C23.1263 9.62526 26.2401 12.7208 27.0552 13.7465C28.0168 14.9554 28.4472 16.1185 28.722 18.3256C28.8227 19.1224 28.9143 19.4887 29.1433 19.9466C30.3613 22.4193 33.5759 23.4725 36.0578 22.2179C36.7446 21.8698 37.4498 21.1555 37.7795 20.4595C38.0176 19.9649 38.0726 19.7177 38.1092 19.0308C38.1825 17.6296 37.7978 16.668 36.7446 15.5507C35.5724 14.3234 34.6657 13.893 32.9623 13.7556C31.0482 13.6091 30.1324 13.3801 28.8777 12.7574C28.0534 12.3361 27.3208 11.7133 25.9287 10.2389C24.7198 8.95671 24.4268 8.59038 24.0421 7.90351C23.5109 6.9419 23.4468 6.63051 23.3827 4.63402C23.3278 2.89395 23.3095 2.76573 23.0805 2.29866C22.7783 1.68506 22.1738 1.0623 21.6427 0.824182C21.1023 0.57691 19.8751 0.521959 19.1699 0.714283Z" fill="url(#paint0_linear_12_172)"/>
<path d="M29.9947 0.906501C29.3811 1.20873 28.7583 1.91391 28.511 2.57331C28.3462 3.00375 28.3187 3.24186 28.3462 3.92873C28.392 5.0552 28.7125 5.72375 29.7291 6.77695C30.709 7.80267 31.0937 8.00415 32.8887 8.44375C34.5647 8.84671 35.6453 9.32294 36.671 10.0831C37.2572 10.5227 40.2977 13.6915 41.4059 15.0194C43.091 17.0342 43.7229 19.5528 43.0727 21.6866C42.8071 22.5383 42.5232 23.0146 41.7814 23.8388C40.8655 24.8554 38.5668 26.9526 38.0082 27.2823C36.8634 27.9509 35.4072 28.3538 33.7312 28.4637C33.2001 28.4912 32.5682 28.5828 32.3117 28.6652C30.8647 29.114 29.6009 30.3595 29.0514 31.8523C28.7583 32.6491 28.7492 34.0961 29.0422 34.9203C29.2987 35.6713 30.2511 36.9076 30.8739 37.3014C32.6414 38.4188 34.7936 38.0524 36.5337 36.3398C37.1381 35.7445 37.3488 35.4606 37.6601 34.8196C37.9898 34.1327 38.0631 33.8671 38.2188 32.7406C38.6767 29.4437 39.3727 28.1981 42.2026 25.643C44.0251 24.0037 44.7853 23.6831 47.1939 23.5458C49.2453 23.4359 49.6208 23.3626 50.2253 22.9413C51.2052 22.2453 51.5166 21.1829 51.1411 19.7084C50.7564 18.1699 50.0329 17.1533 48.8698 16.5397C48.5401 16.3565 47.7342 16.0909 46.8825 15.8711C44.8402 15.3491 43.8969 14.9645 42.7979 14.2227C41.5799 13.3984 39.2903 11.0814 38.0265 9.40536C37.3213 8.47122 36.4604 6.722 36.149 5.61385C36.0208 5.13762 35.7735 4.45075 35.5995 4.08442C34.4273 1.62085 31.6798 0.0639407 29.9947 0.906501Z" fill="url(#paint1_linear_12_172)"/>
<path d="M10.5151 4.94404C9.97476 5.22795 9.0223 6.07967 7.30055 7.82889C5.50553 9.64223 4.73624 10.6313 4.6355 11.2358C4.58971 11.5014 4.62634 11.5746 4.84614 11.712C5.20331 11.9501 5.74365 11.9043 6.54042 11.5746C8.76587 10.6497 10.7532 8.58903 11.4767 6.47347C11.7148 5.79576 11.7148 5.14552 11.495 4.94404C11.2844 4.75172 10.8723 4.75172 10.5151 4.94404Z" fill="#C115EC"/>
<path d="M40.216 4.98195C39.9871 5.11016 39.9962 5.84282 40.2252 6.46558C40.445 7.06087 40.8113 7.9309 40.8754 7.99501C40.9029 8.02248 41.0036 8.19649 41.0952 8.38881C41.3791 8.94747 43.2016 10.6326 44.0076 11.0905C46.3429 12.4093 47.8265 12.1071 46.7642 10.5319C45.885 9.24053 42.9635 6.30989 41.5715 5.32996C40.9304 4.87205 40.5549 4.78046 40.216 4.98195Z" fill="#15C1EC"/>
<path d="M17.1 14.0208C15.6621 14.5337 14.5265 15.5869 13.8396 17.0339C13.6198 17.5009 13.5466 17.8398 13.4367 18.8655C13.3634 19.5616 13.2626 20.3492 13.2169 20.6148C13.0886 21.3199 12.5666 22.538 12.0904 23.2615C11.6508 23.93 9.12312 26.4669 8.2714 27.1171C7.20904 27.9139 6.13753 28.2344 4.19598 28.326C2.92298 28.3901 2.77645 28.4084 2.18116 28.6832C0.6151 29.3975 0.102238 30.5515 0.569309 32.3648C0.853214 33.4729 1.10049 34.0224 1.56756 34.5994C2.33685 35.561 2.9413 35.8449 4.62641 36.0647C7.42884 36.4219 8.58278 37.0355 10.9822 39.4441C13.7938 42.2649 14.5814 43.4829 15.3324 46.1205C15.5431 46.8348 15.827 47.6774 15.9826 47.9796C16.468 48.9779 17.7136 50.2966 18.7484 50.9011C19.3163 51.2308 20.2138 51.4323 20.8823 51.3773C21.8622 51.3041 22.5583 50.7454 23.062 49.6373C23.6939 48.2635 23.3092 46.4502 22.1004 45.1406C21.2212 44.1973 20.2321 43.6844 18.6752 43.3913C17.0267 43.0891 15.6163 42.3748 14.3891 41.2208C13.3634 40.2684 10.0756 36.6051 9.59019 35.8724C8.58278 34.3613 8.22561 33.1799 8.29887 31.5863C8.35382 30.35 8.56446 29.6906 9.20554 28.729C9.69093 27.9963 12.0354 25.5236 13.107 24.6077C14.3067 23.582 15.6438 23.06 17.7593 22.7944C19.6185 22.5563 20.3969 22.2266 21.4227 21.2558C22.4026 20.3308 22.833 19.3326 22.833 17.9863C22.833 16.5393 22.2927 15.3854 21.2578 14.6253C20.4519 14.0391 19.8474 13.8285 18.7576 13.7918C17.9334 13.7644 17.7685 13.7827 17.1 14.0208Z" fill="url(#paint2_linear_12_172)"/>
<path d="M46.6261 28.4998C45.3897 28.9028 44.2541 29.956 43.7046 31.229C43.6039 31.4671 43.4207 32.1082 43.3016 32.6485C42.9536 34.1962 42.4041 35.4143 41.6165 36.3851C40.545 37.713 37.2572 41.1931 36.4971 41.7976C35.7003 42.4387 34.3998 43.0981 33.5023 43.3087C33.136 43.3911 32.4857 43.4552 31.9912 43.4552C30.9288 43.4461 29.9123 43.1622 29.0972 42.631C28.3004 42.109 25.1408 38.8028 24.3715 37.6855C23.9502 37.0719 23.3092 35.6616 23.1626 35.0113C23.0894 34.6816 22.9612 33.894 22.8879 33.2621C22.6956 31.7052 22.4575 31.0641 21.7614 30.2307C20.5983 28.8204 18.6568 28.1335 16.9717 28.5181C15.6987 28.8112 14.4073 29.8094 13.8487 30.9359C13.4457 31.751 13.3725 32.9416 13.6564 33.8757C14.0319 35.1029 14.9477 36.266 16.1474 37.0628C16.9442 37.5848 17.4662 37.7405 18.8674 37.8595C20.58 37.9969 21.1845 38.1526 22.375 38.7296C23.3916 39.2241 23.4649 39.2882 24.6188 40.4513C25.9742 41.8342 26.9908 42.9973 27.3937 43.6659C27.5494 43.9132 27.7876 44.4535 27.9249 44.8565C28.1539 45.525 28.1814 45.7448 28.2272 47.4208C28.2821 49.1791 28.2913 49.2707 28.5385 49.7653C28.8591 50.4338 29.3445 50.9192 29.9581 51.2031C30.3885 51.3954 30.5533 51.4229 31.1578 51.3863C32.0553 51.3313 33.4657 50.8643 34.1892 50.3789C35.1325 49.7561 35.3981 49.2341 36.0666 46.7705C36.8084 44.0505 37.2206 43.208 38.6859 41.4587C40.4076 39.3981 42.1843 37.7771 43.439 37.1269C44.6387 36.495 45.3439 36.2843 46.8367 36.0737C48.3295 35.863 48.7508 35.6707 49.6208 34.7915C50.0604 34.3519 50.4725 33.8299 50.6466 33.5002C51.022 32.7859 51.3151 31.7144 51.3151 31.0641C51.3151 29.9468 50.4451 28.8845 49.1996 28.4998C48.4761 28.2709 47.3404 28.2709 46.6261 28.4998Z" fill="url(#paint3_linear_12_172)"/>
<path d="M45.2252 40.3057C43.2287 41.1025 41.5528 42.5861 40.7377 44.3079C40.2065 45.416 40.0325 45.9747 40.0691 46.515C40.0966 46.8905 40.1332 46.9821 40.3347 47.0737C40.9209 47.3576 41.7909 46.7348 44.2453 44.2712C46.4524 42.0641 47.1027 41.2215 47.1027 40.6079C47.1027 40.0126 46.3059 39.8844 45.2252 40.3057Z" fill="#4040EC"/>
<path d="M4.75523 40.2864C4.36143 40.6802 4.8285 41.6052 6.23887 43.1987C7.20964 44.3069 9.28857 46.2301 10.1037 46.7796C10.8638 47.3016 11.2026 47.3749 11.4682 47.091C11.7613 46.7704 11.7247 46.1202 11.3583 45.2135C10.5158 43.1529 8.65665 41.2846 6.57772 40.4421C5.74432 40.1032 4.99335 40.0391 4.75523 40.2864Z" fill="#2CA9EC"/>
<path d="M156.311 40.6471V11.7188H162.328V22.5951H162.512C162.776 22.0113 163.157 21.418 163.656 20.8154C164.165 20.2033 164.824 19.6948 165.634 19.2898C166.453 18.8755 167.47 18.6683 168.685 18.6683C170.267 18.6683 171.726 19.0827 173.063 19.9114C174.401 20.7306 175.469 21.9689 176.27 23.6263C177.07 25.2742 177.471 27.3412 177.471 29.8272C177.471 32.2473 177.08 34.2908 176.298 35.9575C175.526 37.6149 174.471 38.872 173.134 39.729C171.806 40.5765 170.318 41.0002 168.671 41.0002C167.503 41.0002 166.509 40.8072 165.69 40.4211C164.88 40.035 164.216 39.55 163.698 38.9662C163.181 38.3729 162.785 37.775 162.512 37.1723H162.244V40.6471H156.311ZM162.201 29.799C162.201 31.0891 162.38 32.2144 162.738 33.1749C163.096 34.1354 163.614 34.884 164.292 35.4208C164.97 35.9481 165.794 36.2118 166.764 36.2118C167.743 36.2118 168.572 35.9434 169.25 35.4067C169.928 34.8605 170.441 34.1071 170.789 33.1466C171.147 32.1767 171.326 31.0608 171.326 29.799C171.326 28.5465 171.152 27.4448 170.803 26.4937C170.455 25.5426 169.942 24.7987 169.264 24.2619C168.586 23.7251 167.752 23.4568 166.764 23.4568C165.784 23.4568 164.956 23.7157 164.278 24.2337C163.609 24.7516 163.096 25.4861 162.738 26.4372C162.38 27.3883 162.201 28.5089 162.201 29.799Z" fill="white"/>
<path d="M145.368 31.4105V18.9521H151.385V40.6484H145.608V36.7075H145.382C144.892 37.9788 144.078 39.0005 142.938 39.7726C141.808 40.5448 140.429 40.9309 138.8 40.9309C137.349 40.9309 136.074 40.6013 134.972 39.9422C133.87 39.283 133.008 38.346 132.387 37.1312C131.775 35.9165 131.464 34.4616 131.455 32.7666V18.9521H137.472V31.6931C137.481 32.9737 137.825 33.986 138.503 34.73C139.181 35.4739 140.09 35.8459 141.229 35.8459C141.954 35.8459 142.632 35.6811 143.263 35.3515C143.894 35.0125 144.403 34.5134 144.789 33.8542C145.184 33.195 145.377 32.3805 145.368 31.4105Z" fill="white"/>
<path d="M112.65 28.1039V40.6471H106.633V11.7188H112.481V22.7788H112.735C113.225 21.4981 114.016 20.4952 115.108 19.7701C116.2 19.0356 117.57 18.6683 119.218 18.6683C120.725 18.6683 122.039 18.9979 123.159 19.6571C124.289 20.3069 125.165 21.2438 125.787 22.468C126.417 23.6828 126.728 25.1377 126.719 26.8327V40.6471H120.701V27.9062C120.711 26.569 120.372 25.5285 119.684 24.7845C119.006 24.0406 118.055 23.6686 116.831 23.6686C116.012 23.6686 115.287 23.8429 114.656 24.1913C114.034 24.5397 113.545 25.0482 113.187 25.7168C112.838 26.376 112.66 27.1717 112.65 28.1039Z" fill="white"/>
<path d="M79.0747 16.7614V11.7188H102.833V16.7614H93.9768V40.6471H87.9312V16.7614H79.0747Z" fill="white"/>
<path d="M69.2212 41V19.0065H75.1101V41H69.2212ZM72.1795 16.1714C71.304 16.1714 70.5529 15.8707 69.9262 15.2693C69.3087 14.6584 69 13.9281 69 13.0785C69 12.2385 69.3087 11.5178 69.9262 10.9164C70.5529 10.3055 71.304 10 72.1795 10C73.055 10 73.8015 10.3055 74.419 10.9164C75.0456 11.5178 75.359 12.2385 75.359 13.0785C75.359 13.9281 75.0456 14.6584 74.419 15.2693C73.8015 15.8707 73.055 16.1714 72.1795 16.1714Z" fill="white"/>
<defs>
<linearGradient id="paint0_linear_12_172" x1="0.401367" y1="11.9898" x2="38.1179" y2="11.9898" gradientUnits="userSpaceOnUse">
<stop stop-color="#15C1EC"/>
<stop offset="1" stop-color="#C115EC"/>
</linearGradient>
<linearGradient id="paint1_linear_12_172" x1="39.8162" y1="37.9401" x2="39.8162" y2="0.675781" gradientUnits="userSpaceOnUse">
<stop stop-color="#15C1EC"/>
<stop offset="1" stop-color="#C115EC"/>
</linearGradient>
<linearGradient id="paint2_linear_12_172" x1="0.40332" y1="32.5843" x2="23.3626" y2="32.5843" gradientUnits="userSpaceOnUse">
<stop stop-color="#9615EC"/>
<stop offset="1" stop-color="#15C1EC"/>
</linearGradient>
<linearGradient id="paint3_linear_12_172" x1="13.4854" y1="39.8641" x2="51.3151" y2="39.8641" gradientUnits="userSpaceOnUse">
<stop stop-color="#15C1EC"/>
<stop offset="1" stop-color="#C115EC"/>
</linearGradient>
</defs>
</svg>
