<svg width="60" height="60" viewBox="0 0 60 60" fill="none" xmlns="http://www.w3.org/2000/svg">
<path d="M59.625 2.99999L58.25 13.375C54.8333 13.125 52.25 13.7917 50.5 15.375C48.75 16.9583 47.625 19.125 47.125 21.875C46.625 24.625 46.5 27.6667 46.75 31H59.625V59.25H35.125V27.25C35.125 18.5 37.25 11.9167 41.5 7.49999C45.8333 2.99999 51.875 1.49999 59.625 2.99999ZM24.5 2.99999L23.125 13.375C19.7083 13.125 17.125 13.7917 15.375 15.375C13.625 16.9583 12.5 19.125 12 21.875C11.5 24.625 11.375 27.6667 11.625 31H24.5V59.25H1.41561e-06V27.25C1.41561e-06 18.5 2.125 11.9167 6.375 7.49999C10.7083 2.99999 16.75 1.49999 24.5 2.99999Z" fill="black"/>
</svg>
