<svg width="40" height="33" viewBox="0 0 40 33" fill="none" xmlns="http://www.w3.org/2000/svg">
<path d="M18.024 4.27999L11.016 17.336L6.6 18.584C7.112 17.624 7.688 16.856 8.328 16.28C8.968 15.64 9.704 15.32 10.536 15.32C12.392 15.32 14.056 16.088 15.528 17.624C17.064 19.096 17.832 21.016 17.832 23.384C17.832 25.88 16.968 28.024 15.24 29.816C13.576 31.608 11.496 32.504 9 32.504C6.632 32.504 4.552 31.64 2.76 29.912C1.032 28.12 0.168 25.944 0.168 23.384C0.168 22.36 0.36 21.176 0.744 19.832C1.192 18.488 1.992 16.728 3.144 14.552L10.824 0.343994L18.024 4.27999ZM39.624 4.27999L32.616 17.336L28.296 18.584C28.744 17.624 29.288 16.856 29.928 16.28C30.632 15.64 31.368 15.32 32.136 15.32C33.992 15.32 35.688 16.088 37.224 17.624C38.76 19.096 39.528 21.016 39.528 23.384C39.528 25.88 38.664 28.024 36.936 29.816C35.272 31.608 33.192 32.504 30.696 32.504C28.328 32.504 26.248 31.64 24.456 29.912C22.728 28.12 21.864 25.944 21.864 23.384C21.864 22.36 22.056 21.176 22.44 19.832C22.824 18.488 23.592 16.728 24.744 14.552L32.52 0.343994L39.624 4.27999Z" fill="white"/>
</svg>
