<svg width="26" height="26" viewBox="0 0 26 26" fill="none" xmlns="http://www.w3.org/2000/svg">
<path d="M17.4998 15.25V8.5M17.4998 8.5H10.7498M17.4998 8.5L8.5 17.4998M5.8 25H20.1999C21.8801 25 22.7202 25 23.3619 24.673C23.9264 24.3854 24.3854 23.9265 24.6731 23.362C24.9999 22.7203 24.9999 21.8801 24.9999 20.2V5.8C24.9999 4.11985 24.9999 3.27976 24.6731 2.63803C24.3854 2.07354 23.9264 1.61459 23.3619 1.32698C22.7202 1 21.8801 1 20.1999 1H5.8C4.11985 1 3.27978 1 2.63803 1.32698C2.07355 1.61459 1.61461 2.07354 1.32698 2.63803C1 3.27976 1 4.11983 1 5.8V20.2C1 21.8801 1 22.7203 1.32698 23.362C1.61461 23.9265 2.07355 24.3854 2.63803 24.673C3.27978 25 4.11985 25 5.8 25Z" stroke="url(#paint0_linear_300_1843)" stroke-width="2" stroke-linecap="round" stroke-linejoin="round"/>
<defs>
<linearGradient id="paint0_linear_300_1843" x1="13" y1="1" x2="13" y2="25" gradientUnits="userSpaceOnUse">
<stop stop-color="#000DFF"/>
<stop offset="1" stop-color="#C115EC"/>
</linearGradient>
</defs>
</svg>
